<svg width="150" height="150" viewBox="0 0 150 150" fill="none" xmlns="http://www.w3.org/2000/svg">
<rect x="9" y="11" width="86.5775" height="80.1643" rx="3" fill="#C0BEDB"/>
<path d="M38.6074 75.6669C37.5169 75.6669 36.642 75.3454 35.9828 74.7025C35.3318 74.0677 35.0063 73.1726 35.0063 72.017V68.0131C35.0063 67.0853 34.7825 66.3936 34.3349 65.9379C33.8873 65.474 33.1793 65.2339 32.2109 65.2177V62.8373C33.1956 62.7966 33.9077 62.5484 34.3471 62.0927C34.7866 61.6288 35.0063 60.9371 35.0063 60.0175V56.0135C35.0063 54.8254 35.3237 53.9221 35.9584 53.3036C36.6013 52.677 37.4843 52.3636 38.6074 52.3636H42.5991V54.683H40.3041C39.5636 54.683 39.0265 54.8946 38.6928 55.3177C38.3673 55.7409 38.2045 56.3798 38.2045 57.2343V60.9086C38.2045 61.6817 37.9685 62.349 37.4965 62.9105C37.0327 63.472 36.4264 63.8301 35.6777 63.9847V64.0336C36.4508 64.2126 37.0652 64.5829 37.5209 65.1444C37.9767 65.6978 38.2045 66.3529 38.2045 67.1097V70.7841C38.2045 71.6467 38.3673 72.2855 38.6928 72.7006C39.0265 73.1237 39.5636 73.3353 40.3041 73.3353H42.5991V75.6669H38.6074ZM50.5947 70.4789V66.7557H54.1225V70.4789H50.5947ZM50.5947 60.9574V57.2343H54.1225V60.9574H50.5947ZM62.1181 75.6669V73.3353H64.413C65.1536 73.3353 65.6866 73.1237 66.0121 72.7006C66.3458 72.2855 66.5126 71.6467 66.5126 70.7841V67.1097C66.5126 66.3529 66.7405 65.6978 67.1962 65.1444C67.652 64.5829 68.2664 64.2126 69.0395 64.0336V63.9847C68.2827 63.822 67.6723 63.4598 67.2084 62.8983C66.7446 62.3368 66.5126 61.6735 66.5126 60.9086V57.2343C66.5126 56.3798 66.3458 55.7409 66.0121 55.3177C65.6866 54.8946 65.1536 54.683 64.413 54.683H62.1181V52.3636H66.1098C67.2328 52.3636 68.1118 52.677 68.7465 53.3036C69.3894 53.9221 69.7109 54.8254 69.7109 56.0135V60.0175C69.7109 60.9371 69.9306 61.6288 70.3701 62.0927C70.8095 62.5484 71.5216 62.7966 72.5063 62.8373V65.2177C71.5379 65.2339 70.8299 65.474 70.3823 65.9379C69.9347 66.3936 69.7109 67.0853 69.7109 68.0131V72.017C69.7109 73.1644 69.3854 74.0596 68.7343 74.7025C68.0833 75.3454 67.2084 75.6669 66.1098 75.6669H62.1181Z" fill="black"/>
<path fill-rule="evenodd" clip-rule="evenodd" d="M11 11C9.89543 11 9 11.8954 9 13V23.8263V37.8592V39.8592H11H93.5775H95.5775V37.8592V23.8263V13C95.5775 11.8954 94.6821 11 93.5775 11H11Z" fill="#63569E"/>
<path d="M40.3755 30.0332C42.033 30.0332 43.1803 29.2044 43.8174 27.5469L46.2017 28.4468C45.6883 29.7085 44.9338 30.6486 43.938 31.2671C42.9484 31.8794 41.7609 32.1855 40.3755 32.1855C38.9777 32.1855 37.7871 31.9196 36.8037 31.3877C35.8203 30.8496 35.0688 30.0734 34.5493 29.0591C34.036 28.0448 33.7793 26.8263 33.7793 25.4038C33.7793 23.9689 34.0267 22.7567 34.5215 21.7671C35.0163 20.7775 35.7461 20.026 36.7109 19.5127C37.6758 18.9932 38.8571 18.7334 40.2549 18.7334C41.7887 18.7334 43.0381 19.0426 44.0029 19.6611C44.9678 20.2734 45.645 21.1764 46.0347 22.3701L43.6226 23.0288C43.4185 22.3732 43.0164 21.8537 42.4165 21.4702C41.8228 21.0806 41.1208 20.8857 40.3105 20.8857C39.0736 20.8857 38.1335 21.2692 37.4902 22.0361C36.8532 22.8031 36.5347 23.9256 36.5347 25.4038C36.5347 26.4058 36.68 27.25 36.9707 27.9365C37.2676 28.623 37.7005 29.1457 38.2695 29.5044C38.8447 29.8569 39.5467 30.0332 40.3755 30.0332ZM58.6611 28.2334C58.6611 29.5137 58.1849 30.494 57.2324 31.1743C56.2861 31.8485 54.8945 32.1855 53.0576 32.1855C49.7487 32.1855 47.8221 30.9888 47.2778 28.5952L49.9219 28.1592C50.1012 28.8519 50.4507 29.356 50.9702 29.6714C51.4897 29.9806 52.2103 30.1353 53.1318 30.1353C54.0905 30.1353 54.8079 29.9899 55.2842 29.6992C55.7604 29.4085 55.9985 28.9725 55.9985 28.3911C55.9985 28.02 55.8903 27.7139 55.6738 27.4727C55.4574 27.2314 55.1481 27.0304 54.7461 26.8696C54.5482 26.7892 54.2575 26.7026 53.874 26.6099C53.4906 26.5109 53.0143 26.4027 52.4453 26.2852C51.7897 26.1305 51.2764 26.0007 50.9053 25.8955C50.5342 25.7842 50.2373 25.679 50.0146 25.5801C49.792 25.4749 49.5755 25.3605 49.3652 25.2368C48.9014 24.9585 48.5396 24.5874 48.2798 24.1235C48.02 23.6597 47.8901 23.0814 47.8901 22.3887C47.8901 21.2074 48.3324 20.3044 49.2168 19.6797C50.1074 19.0488 51.4001 18.7334 53.0947 18.7334C54.7152 18.7334 55.9305 18.987 56.7407 19.4941C57.5571 20.0013 58.0828 20.8394 58.3179 22.0083L55.6646 22.3701C55.5285 21.8073 55.2502 21.3836 54.8296 21.0991C54.4152 20.8146 53.8184 20.6724 53.0391 20.6724C52.2103 20.6724 51.5887 20.8022 51.1743 21.062C50.7599 21.3218 50.5527 21.7114 50.5527 22.231C50.5527 22.5711 50.6393 22.8494 50.8125 23.0659C50.9919 23.2824 51.2547 23.4679 51.6011 23.6226C51.9289 23.771 52.6309 23.9596 53.707 24.1885C54.3317 24.3245 54.8698 24.4544 55.3213 24.5781C55.7728 24.6956 56.1346 24.8101 56.4067 24.9214C56.6789 25.0389 56.9201 25.1626 57.1304 25.2925C57.3468 25.4224 57.5324 25.5615 57.687 25.71C58.0024 26.013 58.2437 26.3748 58.4106 26.7954C58.5776 27.2098 58.6611 27.6891 58.6611 28.2334ZM71.334 28.2334C71.334 29.5137 70.8577 30.494 69.9053 31.1743C68.959 31.8485 67.5674 32.1855 65.7305 32.1855C62.4215 32.1855 60.495 30.9888 59.9507 28.5952L62.5947 28.1592C62.7741 28.8519 63.1235 29.356 63.6431 29.6714C64.1626 29.9806 64.8831 30.1353 65.8047 30.1353C66.7633 30.1353 67.4808 29.9899 67.957 29.6992C68.4333 29.4085 68.6714 28.9725 68.6714 28.3911C68.6714 28.02 68.5632 27.7139 68.3467 27.4727C68.1302 27.2314 67.821 27.0304 67.4189 26.8696C67.221 26.7892 66.9303 26.7026 66.5469 26.6099C66.1634 26.5109 65.6872 26.4027 65.1182 26.2852C64.4626 26.1305 63.9492 26.0007 63.5781 25.8955C63.207 25.7842 62.9102 25.679 62.6875 25.5801C62.4648 25.4749 62.2484 25.3605 62.0381 25.2368C61.5742 24.9585 61.2124 24.5874 60.9526 24.1235C60.6929 23.6597 60.563 23.0814 60.563 22.3887C60.563 21.2074 61.0052 20.3044 61.8896 19.6797C62.7803 19.0488 64.0729 18.7334 65.7676 18.7334C67.388 18.7334 68.6034 18.987 69.4136 19.4941C70.23 20.0013 70.7557 20.8394 70.9907 22.0083L68.3374 22.3701C68.2013 21.8073 67.923 21.3836 67.5024 21.0991C67.0881 20.8146 66.4912 20.6724 65.7119 20.6724C64.8831 20.6724 64.2616 20.8022 63.8472 21.062C63.4328 21.3218 63.2256 21.7114 63.2256 22.231C63.2256 22.5711 63.3122 22.8494 63.4854 23.0659C63.6647 23.2824 63.9276 23.4679 64.2739 23.6226C64.6017 23.771 65.3037 23.9596 66.3799 24.1885C67.0046 24.3245 67.5426 24.4544 67.9941 24.5781C68.4456 24.6956 68.8075 24.8101 69.0796 24.9214C69.3517 25.0389 69.5929 25.1626 69.8032 25.2925C70.0197 25.4224 70.2052 25.5615 70.3599 25.71C70.6753 26.013 70.9165 26.3748 71.0835 26.7954C71.2505 27.2098 71.334 27.6891 71.334 28.2334Z" fill="white"/>
<path fill-rule="evenodd" clip-rule="evenodd" d="M110.9 80.0491C110.955 67.7098 106.219 61.2623 103.844 59.581C103.731 70.2283 103.545 88.3676 103.438 100.61C91.1949 100.718 73.0557 100.904 62.4084 101.017C64.0898 103.392 70.5372 108.128 82.8766 108.072C89.4453 108.043 96.9044 107.874 103.38 107.681C103.36 110.31 103.351 112.186 103.354 112.976C98.8815 112.335 96.134 117.389 95.3193 119.996C93.9524 125.242 93.4666 136.011 102.458 137.119C109.996 138.049 109.985 126.56 109.978 118.345C109.976 116.76 109.975 115.297 110.028 114.068C110.099 112.434 110.189 110.154 110.284 107.457C112.982 107.361 115.261 107.271 116.895 107.201C118.124 107.148 119.587 107.149 121.172 107.151C129.388 107.158 140.876 107.168 139.947 99.6309C138.838 90.6393 128.069 91.1251 122.824 92.492C120.217 93.3067 115.163 96.0541 115.804 100.527C115.014 100.523 113.138 100.533 110.509 100.552C110.701 94.0771 110.87 86.6179 110.9 80.0491ZM97.5457 124.369C97.9747 120.362 100.582 117.356 103.369 117.655C106.156 117.953 106.849 121.81 106.42 125.817C105.991 129.823 104.603 132.462 101.816 132.164C99.0286 131.865 97.1168 128.375 97.5457 124.369ZM127.145 94.921C123.138 95.3499 120.132 97.9571 120.431 100.744C120.729 103.532 124.586 104.224 128.593 103.795C132.599 103.366 135.238 101.978 134.94 99.191C134.641 96.4038 131.152 94.4921 127.145 94.921Z" fill="black"/>
</svg>
