<svg width="150" height="150" viewBox="0 0 150 150" fill="none" xmlns="http://www.w3.org/2000/svg">
<path fill-rule="evenodd" clip-rule="evenodd" d="M48.9023 16.4338V16.9148H47.4023H45.9023V14.9338V11.9338H48.9023H50.8833V13.4338V14.9338H50.4023H48.9023V16.4338ZM47.4023 20.8768H48.9023V24.8388H47.4023H45.9023V20.8768H47.4023ZM47.4023 28.8008H48.9023V32.7628H47.4023H45.9023V28.8008H47.4023ZM47.4023 36.7248H48.9023V40.6868H47.4023H45.9023V36.7248H47.4023ZM47.4023 44.6488H48.9023V48.6108H47.4023H45.9023V44.6488H47.4023ZM47.4023 52.5728H48.9023V56.5348H47.4023H45.9023V52.5728H47.4023ZM47.4023 60.4967H48.9023V64.4587H47.4023H45.9023V60.4967H47.4023ZM64.928 105.098H66.7313V103.598V102.098H65.94C65.8695 102.35 65.7954 102.603 65.7177 102.855C65.4824 103.62 65.2187 104.367 64.928 105.098ZM70.6933 103.598V102.098H74.6553V103.598V105.098H70.6933V103.598ZM78.6172 103.598V102.098H82.5792V103.598V105.098H78.6172V103.598ZM86.5412 103.598V102.098H90.5032V103.598V105.098H86.5412V103.598ZM94.4652 103.598V102.098H98.4272V103.598V105.098H94.4652V103.598ZM102.389 103.598V102.098H106.351V103.598V105.098H102.389V103.598ZM110.313 103.598V102.098H114.275V103.598V105.098H110.313V103.598ZM118.237 103.598V102.098H122.199V103.598V105.098H118.237V103.598ZM126.161 103.598V102.098H130.123V103.598V105.098H126.161V103.598ZM134.085 103.598V102.098H134.566H136.066V100.598V100.117H137.566H139.066V102.098V105.098H136.066H134.085V103.598ZM137.566 96.1547H136.066V92.1927H137.566H139.066V96.1547H137.566ZM137.566 88.2307H136.066V84.2687H137.566H139.066V88.2307H137.566ZM137.566 80.3067H136.066V76.3447H137.566H139.066V80.3067H137.566ZM137.566 72.3827H136.066V68.4207H137.566H139.066V72.3827H137.566ZM137.566 64.4588H136.066V60.4968H137.566H139.066V64.4588H137.566ZM137.566 56.5348H136.066V52.5728H137.566H139.066V56.5348H137.566ZM137.566 48.6108H136.066V44.6488H137.566H139.066V48.6108H137.566ZM137.566 40.6868H136.066V36.7248H137.566H139.066V40.6868H137.566ZM137.566 32.7628H136.066V28.8008H137.566H139.066V32.7628H137.566ZM137.566 24.8388H136.066V20.8768H137.566H139.066V24.8388H137.566ZM136.066 16.4338V16.9148H137.566H139.066V14.9338V11.9338H136.066H134.085V13.4338V14.9338H134.566H136.066V16.4338ZM130.123 13.4338V14.9338H126.161V13.4338V11.9338H130.123V13.4338ZM122.199 13.4338V14.9338H118.237V13.4338V11.9338H122.199V13.4338ZM114.275 13.4338V14.9338H110.313V13.4338V11.9338H114.275V13.4338ZM106.351 13.4338V14.9338H102.389V13.4338V11.9338H106.351V13.4338ZM98.4272 13.4338V14.9338H94.4652V13.4338V11.9338H98.4272V13.4338ZM90.5032 13.4338V14.9338H86.5412V13.4338V11.9338H90.5032V13.4338ZM82.5793 13.4338V14.9338H78.6173V13.4338V11.9338H82.5793V13.4338ZM74.6553 13.4338V14.9338H70.6933V13.4338V11.9338H74.6553V13.4338ZM66.7313 13.4338V14.9338H62.7693V13.4338V11.9338H66.7313V13.4338ZM58.8073 13.4338V14.9338H54.8453V13.4338V11.9338H58.8073V13.4338Z" fill="#C0BEDB"/>
<rect x="43.9685" y="10" width="8.22301" height="8.22301" fill="#56527F"/>
<rect x="132.777" y="10" width="8.22301" height="8.22301" fill="#56527F"/>
<rect x="132.777" y="98.8085" width="8.22301" height="8.22301" fill="#56527F"/>
<rect x="132.777" y="54.4042" width="8.22301" height="8.22301" fill="#56527F"/>
<rect x="96.5958" y="10" width="8.22301" height="8.22301" transform="rotate(90 96.5958 10)" fill="#56527F"/>
<rect x="96.5958" y="100" width="8.22301" height="8.22301" transform="rotate(90 96.5958 100)" fill="#56527F"/>
<path fill-rule="evenodd" clip-rule="evenodd" d="M56.8361 19.8676C55.1793 19.8676 53.8361 21.2108 53.8361 22.8676V69.8057C62.8606 75.7325 67.9718 86.2987 66.8725 97.1639H128.132C129.789 97.1639 131.132 95.8208 131.132 94.1639V22.8676C131.132 21.2108 129.789 19.8676 128.132 19.8676H56.8361Z" fill="#A5BC9A"/>
<path d="M75.9692 65.1445L73.5889 72H67.9712L77.7593 45.1685H84.3862L94.1362 72H88.5757L86.1953 65.1445H75.9692ZM81.0728 49.3008C80.9458 49.8086 80.7681 50.418 80.5396 51.1289C80.311 51.8398 80.146 52.3413 80.0444 52.6333L77.2261 60.917H84.9385L82.0439 52.4619C81.8662 51.9414 81.7012 51.4146 81.5488 50.8813C81.3965 50.3481 81.2378 49.8213 81.0728 49.3008ZM102.667 72.3809C100.674 72.3809 99.1191 71.8413 98.002 70.7622C96.8848 69.6704 96.3262 68.1406 96.3262 66.1729C96.3262 64.04 97.0181 62.4214 98.4019 61.3169C99.7983 60.2124 101.817 59.6348 104.458 59.584L108.895 59.5078V58.4604C108.895 57.1147 108.66 56.1182 108.19 55.4707C107.72 54.8105 106.952 54.4805 105.886 54.4805C104.896 54.4805 104.166 54.709 103.696 55.166C103.239 55.6104 102.953 56.353 102.839 57.394L97.2593 57.1274C97.9575 53.0522 100.909 51.0146 106.114 51.0146C108.717 51.0146 110.723 51.6558 112.132 52.938C113.541 54.2202 114.246 56.042 114.246 58.4033V65.9062C114.246 67.0615 114.373 67.8613 114.626 68.3057C114.893 68.7373 115.331 68.9531 115.94 68.9531C116.347 68.9531 116.74 68.915 117.121 68.8389V71.7334C116.461 71.8984 115.896 72.019 115.426 72.0952C114.957 72.1841 114.379 72.2285 113.693 72.2285C112.348 72.2285 111.351 71.8984 110.704 71.2383C110.069 70.5781 109.688 69.6069 109.561 68.3247H109.447C108.698 69.6704 107.758 70.686 106.628 71.3716C105.499 72.0444 104.178 72.3809 102.667 72.3809ZM108.895 62.4595L106.152 62.4976C104.896 62.561 104.013 62.6943 103.505 62.8975C102.985 63.126 102.585 63.4688 102.306 63.9258C102.039 64.3828 101.906 64.9922 101.906 65.7539C101.906 66.7314 102.128 67.4614 102.572 67.9438C103.029 68.4136 103.632 68.6484 104.381 68.6484C105.219 68.6484 105.987 68.4199 106.686 67.9629C107.371 67.5059 107.911 66.8774 108.304 66.0776C108.698 65.2651 108.895 64.4082 108.895 63.5068V62.4595Z" fill="black"/>
<circle cx="37.71" cy="94.4904" r="22.9913" transform="rotate(17.1111 37.71 94.4904)" fill="white" stroke="black" stroke-width="5"/>
<circle cx="37.71" cy="94.4904" r="22.9913" transform="rotate(17.1111 37.71 94.4904)" fill="#383734" fill-opacity="0.5" stroke="black" stroke-width="5"/>
<line x1="24.7018" y1="112.758" x2="8.83587" y2="141.226" stroke="black" stroke-width="7"/>
</svg>
