<svg width="150" height="150" viewBox="0 0 150 150" fill="none" xmlns="http://www.w3.org/2000/svg">
<path d="M147.371 27.5776C146.762 36.7204 144.811 62.5033 141.885 92.4919C139.532 116.618 117.026 129.76 98.914 135.396L97.7449 135.778C95.4362 136.56 92.5085 137.669 90.6854 138.086C88.8863 138.497 87.6616 138.756 86.114 139L106.228 111.692C105.314 99.8061 104.034 70.549 106.228 48.6061C108.971 21.1776 132.884 14.5038 139.143 12.8816C140.719 12.4729 145.382 10.6699 146.457 11.0531C150.369 12.4474 147.849 20.4056 147.371 27.5776Z" fill="black"/>
<path fill-rule="evenodd" clip-rule="evenodd" d="M146.167 43.8747C146.739 36.5926 147.146 30.9518 147.371 27.5776C147.495 25.7204 147.756 23.8105 148.006 21.9755C148.723 16.7242 149.356 12.0863 146.457 11.0531C145.678 10.7756 143.018 11.6448 141.011 12.3005C140.247 12.5502 139.577 12.7689 139.143 12.8816C134.424 14.1047 119.671 18.1991 111.52 31.8945C118.353 37.1948 132.209 45.0474 146.167 43.8747ZM145.357 53.9109C136.421 54.5296 118.687 52.8842 107.288 42.3522C106.81 44.3067 106.45 46.3886 106.228 48.6061C105.965 51.2377 105.752 53.9745 105.582 56.774C112.496 62.3992 128.117 71.6989 143.93 70.5524C144.459 64.6036 144.936 59.0123 145.357 53.9109ZM105.066 84.1509C105.006 80.0038 104.997 75.6913 105.06 71.3572C117.162 80.3228 133.866 81.8907 142.946 81.3616C142.609 84.988 142.255 88.7064 141.885 92.4919C141.701 94.3842 141.392 96.2089 140.972 97.9678V96.8776C126.22 98.2497 111.529 89.4528 105.066 84.1509ZM105.465 98.3283C105.687 103.615 105.959 108.138 106.207 111.413C111.563 114.908 119.047 118.65 127.162 120.133C131.333 116.415 134.946 112.071 137.572 107.041C129.188 107.217 115.721 105.523 105.465 98.3283ZM93.4288 129.069L99.7239 120.523C104.383 124.325 109.904 126.82 115.385 128.401C109.93 131.439 104.233 133.741 98.914 135.396L97.7449 135.778C97.1329 135.985 96.4774 136.216 95.8105 136.45L95.8103 136.45L95.8099 136.45L95.8097 136.45C93.9611 137.099 92.0251 137.779 90.6855 138.086C88.8866 138.497 87.6619 138.756 86.1146 139L86.1145 139H86.114H49.5431V134.429L58.6859 130.771C66.9145 128.029 66.9145 120.714 63.2574 117.057C58.1374 111.937 53.2002 116.143 51.3717 119.8L41.3145 139H36.7431V112.486C36.7431 109.351 34.7279 113.605 33.5764 116.036L33.5763 116.036C33.3844 116.442 33.2165 116.796 33.086 117.057L21.2002 139H16.6288L14.8616 78.916C11.0875 77.4584 8.85987 75.9165 2 70.4286C12.0571 60.3714 12.9714 29.2857 12.9714 21.0571V12.8286H19.3714C20.4302 12.8286 21.6812 14.3272 23.2173 16.1675C25.6606 19.0945 28.8253 22.8857 33.0857 22.8857C39.7367 22.8857 40.2565 19.0204 40.7272 15.5208C40.9682 13.7285 41.1964 12.0322 42.2286 11H48.6286L54.1143 21.0571C59.6 32.9429 65.0857 40.2571 73.3143 45.7429C76.1315 47.621 79.503 49.5361 82.2329 51.0868C84.5071 52.3785 86.336 53.4174 87.0285 53.9714C84.3763 59.2759 73.5174 71.7612 64.2059 77.2095C88.9707 87.3786 93.4288 106.825 93.4288 117.057V129.069Z" fill="#63569E"/>
<path d="M32.1714 43.9143C18.4571 43.9143 9.31428 64.0285 2 70.4286L13.8857 78.6571C18.4571 76.8285 32.237 69.5143 34.9143 67.6857C38.2053 65.4379 45.8857 61.2857 51.3714 53.0571C47.7143 49.4 43.1428 43.9143 32.1714 43.9143Z" fill="black"/>
<path d="M20.2855 52.2871C24.6993 47.1416 36.3643 40.1309 47.7141 53.2519C41.0934 61.9349 28.7978 63.8645 20.2855 52.2871Z" fill="white"/>
<circle cx="33.0858" cy="53.0571" r="7.31428" fill="black"/>
</svg>
