<svg width="150" height="150" viewBox="0 0 150 150" fill="none" xmlns="http://www.w3.org/2000/svg">
<path fill-rule="evenodd" clip-rule="evenodd" d="M101.32 25.4426L73.5543 55.8732C70.5946 61.3473 64.8489 72.4494 65.5433 73.0654L66.6759 74.0699L66.6541 74.0947L67.8115 75.1212C68.5059 75.7371 78.8426 68.7069 83.9242 65.1148L110.822 33.9143L106.347 29.8284L106.375 29.7972L101.32 25.4426Z" fill="#D9D9D9"/>
<path fill-rule="evenodd" clip-rule="evenodd" d="M101.32 25.4427L73.5542 55.8732C70.5945 61.3473 64.8488 72.4495 65.5432 73.0654L66.6758 74.0699L66.654 74.0947L67.8114 75.1212C68.5058 75.7372 78.8425 68.7069 83.9241 65.1148L110.822 33.9144L106.347 29.8285L106.375 29.7973L101.32 25.4427Z" fill="#C0BEDB"/>
<path fill-rule="evenodd" clip-rule="evenodd" d="M91.6788 39.9294L74.355 58.9159C72.5083 62.3314 68.9234 69.2584 69.3567 69.6427L70.0633 70.2694L70.0496 70.285L70.7717 70.9254C71.205 71.3097 77.6544 66.9233 80.8249 64.6821L97.6071 45.2152L94.8154 42.6659L94.833 42.6464L91.6788 39.9294Z" fill="#605C91"/>
<path fill-rule="evenodd" clip-rule="evenodd" d="M106.379 18.6469C106.488 18.3141 106.653 17.9947 106.875 17.704C107.073 17.4465 107.266 17.1928 107.455 16.9438C111.378 11.7854 113.778 8.62871 120.759 14.951C126.534 20.1801 125.102 21.8293 121.131 26.4011C120.589 27.0261 119.998 27.7059 119.373 28.4569C119.043 28.8524 118.636 29.1498 118.191 29.3435L120.768 31.6768C121.933 32.7321 122.022 34.5321 120.967 35.6974C119.912 36.8626 118.112 36.9518 116.947 35.8966L99.9593 20.5131C98.794 19.4579 98.7048 17.6578 99.7601 16.4926C100.815 15.3273 102.615 15.2381 103.781 16.2934L106.379 18.6469Z" fill="black"/>
<path d="M78.8561 33.2666C77.9859 33.191 77.105 33.1524 76.2152 33.1524C65.2575 33.1524 55.6674 39.0075 50.4028 47.7598L35.4615 35.615C44.3634 25.0912 57.6661 18.4092 72.5294 18.4092C78.6662 18.4092 84.537 19.5483 89.9418 21.6266L78.8561 33.2666Z" fill="#A5BC9A"/>
<path d="M32.9794 38.8091L48.5205 51.4413C46.9719 55.0679 46.1147 59.0603 46.1147 63.2529C46.1147 68.1442 47.2814 72.763 49.3516 76.8463L29.0867 88.592C25.8314 82.0736 24 74.72 24 66.9387C24 56.453 27.3255 46.7441 32.9794 38.8091Z" fill="#383734"/>
<path d="M31.0435 92.1321L51.4191 80.3223C56.1898 87.2392 63.7798 92.0617 72.5294 93.13V115.468C54.9528 115.468 39.5586 106.124 31.0435 92.1321Z" fill="#56527F"/>
<path d="M76.5735 115.302C95.9058 113.707 112.025 100.781 118.274 83.1801L102.537 77.8653C97.4522 87.0057 87.7443 93.221 76.5735 93.3513V115.302Z" fill="#627C54"/>
<path d="M119.467 79.3143C120.506 75.3634 121.059 71.2156 121.059 66.9387C121.059 59.6765 119.464 52.7868 116.605 46.601L105.708 57.2035C106.106 59.1577 106.316 61.1808 106.316 63.2529C106.316 67.1081 105.591 70.7941 104.27 74.182L119.467 79.3143Z" fill="#C0BEDB"/>
</svg>
