<svg width="32" height="32" viewBox="0 0 32 32" fill="none" xmlns="http://www.w3.org/2000/svg">
<path d="M30.7464 6.39217C30.6217 8.26302 30.2226 13.5388 29.6239 19.6752C29.1423 24.6119 24.5371 27.3012 20.8309 28.4544L20.5917 28.5326C20.1193 28.6926 19.5202 28.9194 19.1472 29.0048C18.779 29.089 18.5284 29.1419 18.2117 29.1919L22.3276 23.604C22.1405 21.1719 21.8786 15.1852 22.3276 10.6951C22.8888 5.08258 27.7821 3.71697 29.0626 3.38503C29.3853 3.3014 30.3393 2.93246 30.5593 3.01086C31.3599 3.29616 30.8442 4.92461 30.7464 6.39217Z" fill="black"/>
<path fill-rule="evenodd" clip-rule="evenodd" d="M1 15.1605C2.40369 16.2835 2.85952 16.599 3.6318 16.8972L3.9934 29.1919H4.92883L7.36093 24.7018C7.38765 24.6484 7.42202 24.5758 7.46129 24.4929C7.69692 23.9955 8.10927 23.125 8.10927 23.7664V29.1919H9.04469L11.1026 25.2631C11.4768 24.5148 12.4871 23.6542 13.5347 24.7018C14.2831 25.4502 14.2831 26.9469 12.5993 27.5081L10.7285 28.2564V29.1919H18.2118L18.2119 29.1918C18.5285 29.1418 18.7791 29.089 19.1472 29.0048C19.4213 28.942 19.8175 28.8029 20.1958 28.67L20.1959 28.67L20.196 28.67C20.3324 28.6221 20.4665 28.575 20.5917 28.5326L20.8309 28.4544C21.9193 28.1157 23.0852 27.6446 24.2014 27.023C23.0797 26.6996 21.9501 26.1891 20.9967 25.4109L19.7085 27.1598V24.7018C19.7085 22.608 18.7963 18.6289 13.7288 16.5481C15.6342 15.4332 17.8562 12.8784 18.3989 11.793C18.2572 11.6796 17.8829 11.467 17.4176 11.2027L17.4176 11.2027C16.859 10.8854 16.1691 10.4935 15.5926 10.1092C13.9088 8.98671 12.7863 7.49003 11.6638 5.05793L10.5413 3H9.23173C9.02052 3.21121 8.97384 3.55832 8.92451 3.92506C8.8282 4.64117 8.72183 5.4321 7.36088 5.4321C6.48911 5.4321 5.84153 4.65632 5.34157 4.05738C5.02724 3.68082 4.77126 3.37417 4.55461 3.37417H3.24502V5.05793C3.24502 6.7417 3.05793 13.1026 1 15.1605ZM30.5 9.72694C30.617 8.23685 30.7004 7.08262 30.7464 6.39217C30.7717 6.01217 30.8251 5.62139 30.8764 5.24593L30.8764 5.24585C31.0231 4.17131 31.1526 3.22228 30.5593 3.01086C30.4 2.95408 29.8556 3.13194 29.445 3.26612L29.4449 3.26613C29.2886 3.31722 29.1516 3.36197 29.0627 3.38503C28.0972 3.63529 25.0782 4.47311 23.4104 7.27554C24.8087 8.3601 27.6438 9.96692 30.5 9.72694ZM30.3344 11.7806C28.5057 11.9072 24.877 11.5705 22.5445 9.41542C22.4467 9.81536 22.373 10.2414 22.3276 10.6951C22.2738 11.2336 22.2301 11.7936 22.1954 12.3665C23.6101 13.5175 26.8067 15.4205 30.0422 15.1858C30.1504 13.9686 30.2481 12.8244 30.3344 11.7806ZM22.0897 17.9685C22.0776 17.1199 22.0756 16.2374 22.0885 15.3505C24.565 17.1851 27.9829 17.5059 29.8409 17.3977C29.7719 18.1397 29.6995 18.9006 29.6239 19.6752C29.5861 20.0624 29.523 20.4358 29.4369 20.7958V20.5726C26.4183 20.8534 23.4122 19.0533 22.0897 17.9685ZM22.1715 20.8695C22.2168 21.9513 22.2725 22.8767 22.3232 23.5468C23.4191 24.2621 24.9505 25.0278 26.6111 25.3312C27.4647 24.5705 28.2039 23.6816 28.7412 22.6523C27.0257 22.6883 24.2701 22.3416 22.1715 20.8695Z" fill="#63569E"/>
<path d="M7.1738 9.73506C4.36752 9.73506 2.49668 13.8509 1 15.1605L3.4321 16.8443C4.36752 16.4701 7.18722 14.9734 7.73505 14.5993C8.40847 14.1393 9.98007 13.2897 11.1026 11.6059C10.3542 10.8576 9.41881 9.73506 7.1738 9.73506Z" fill="black"/>
<path d="M4.7417 11.4483C5.64487 10.3954 8.03181 8.96088 10.3542 11.6457C8.99949 13.4225 6.48352 13.8173 4.7417 11.4483Z" fill="white"/>
<circle cx="7.36087" cy="11.6059" r="1.49668" fill="black"/>
</svg>
